<svg width="55" height="55" viewBox="0 0 55 55" fill="none" xmlns="http://www.w3.org/2000/svg">
<path d="M38.8125 36.6351C38.3649 36.6351 37.9357 36.8129 37.6193 37.1293C37.3028 37.4458 37.125 37.875 37.125 38.3226C37.125 38.7701 37.3028 39.1993 37.6193 39.5158C37.9357 39.8323 38.3649 40.0101 38.8125 40.0101H45.5625C46.0101 40.0101 46.4393 39.8323 46.7557 39.5158C47.0722 39.1993 47.25 38.7701 47.25 38.3226C47.25 37.875 47.0722 37.4458 46.7557 37.1293C46.4393 36.8129 46.0101 36.6351 45.5625 36.6351H38.8125Z" fill="#CCCCCC"/>
<path d="M0 14.712C0 12.4757 0.888948 10.331 2.47129 8.74969C4.05362 7.16839 6.19974 6.28003 8.4375 6.28003H45.5625C47.8003 6.28003 49.9464 7.16839 51.5287 8.74969C53.1111 10.331 54 12.4757 54 14.712V38.3215C54 40.5578 53.1111 42.7025 51.5287 44.2838C49.9464 45.8651 47.8003 46.7534 45.5625 46.7534H8.4375C6.19974 46.7534 4.05362 45.8651 2.47129 44.2838C0.888948 42.7025 0 40.5578 0 38.3215V14.712ZM3.375 38.3215C3.375 39.6633 3.90837 40.9501 4.85777 41.8989C5.80718 42.8476 7.09484 43.3807 8.4375 43.3807H45.5625C46.9052 43.3807 48.1928 42.8476 49.1422 41.8989C50.0916 40.9501 50.625 39.6633 50.625 38.3215V23.144H3.375V38.3215ZM50.625 14.712C50.625 13.3702 50.0916 12.0834 49.1422 11.1346C48.1928 10.1858 46.9052 9.65281 45.5625 9.65281H8.4375C7.09484 9.65281 5.80718 10.1858 4.85777 11.1346C3.90837 12.0834 3.375 13.3702 3.375 14.712V19.7712H50.625V14.712Z" fill="#CCCCCC"/>
</svg>
