<svg width="60" height="50" viewBox="0 0 60 50" fill="none" xmlns="http://www.w3.org/2000/svg">
<path fill-rule="evenodd" clip-rule="evenodd" d="M52 3H8C5.23858 3 3 5.23858 3 8V28.1965C3 30.958 5.23858 33.1965 8 33.1965H52C54.7614 33.1965 57 30.958 57 28.1965V8C57 5.23858 54.7614 3 52 3ZM8 0C3.58172 0 0 3.58172 0 8V28.1965C0 32.6148 3.58172 36.1965 8 36.1965H52C56.4183 36.1965 60 32.6148 60 28.1965V8C60 3.58172 56.4183 0 52 0H8Z" fill="#C4C4C4"/>
<path fill-rule="evenodd" clip-rule="evenodd" d="M17.0822 48.2621C17.0822 47.4337 17.7537 46.7621 18.5822 46.7621H41.1941C42.0225 46.7621 42.6941 47.4337 42.6941 48.2621C42.6941 49.0905 42.0225 49.7621 41.1941 49.7621H18.5822C17.7537 49.7621 17.0822 49.0905 17.0822 48.2621Z" fill="#C4C4C4"/>
<path fill-rule="evenodd" clip-rule="evenodd" d="M24.0224 48.2621V35.9772H27.0224V48.2621H24.0224Z" fill="#C4C4C4"/>
<path fill-rule="evenodd" clip-rule="evenodd" d="M32.306 48.2621V35.9772H35.306V48.2621H32.306Z" fill="#C4C4C4"/>
<path fill-rule="evenodd" clip-rule="evenodd" d="M21.9669 8.45018C22.5467 9.04189 22.5371 9.99159 21.9453 10.5714L14.6432 17.7265L21.9453 24.8816C22.5371 25.4614 22.5467 26.4111 21.9669 27.0028C21.3871 27.5945 20.4374 27.6042 19.8457 27.0244L11.4502 18.7979C11.1623 18.5157 11 18.1296 11 17.7265C11 17.3234 11.1623 16.9372 11.4502 16.6551L19.8457 8.42861C20.4374 7.84881 21.3871 7.85847 21.9669 8.45018Z" fill="#C4C4C4"/>
<path fill-rule="evenodd" clip-rule="evenodd" d="M38.2944 27.0028C37.7146 26.411 37.7242 25.4613 38.316 24.8815L45.6181 17.7265L38.316 10.5714C37.7242 9.99156 37.7146 9.04187 38.2944 8.45015C38.8742 7.85844 39.8239 7.84878 40.4156 8.42858L48.8111 16.6551C49.099 16.9372 49.2613 17.3233 49.2613 17.7265C49.2613 18.1296 49.099 18.5157 48.8111 18.7978L40.4156 27.0243C39.8239 27.6041 38.8742 27.5945 38.2944 27.0028Z" fill="#C4C4C4"/>
<path fill-rule="evenodd" clip-rule="evenodd" d="M34.4829 8.78433C35.2416 9.11689 35.5871 10.0016 35.2545 10.7603L27.7545 27.8714C27.4219 28.6302 26.5373 28.9756 25.7785 28.6431C25.0198 28.3105 24.6743 27.4258 25.0069 26.6671L32.5069 9.55599C32.8394 8.79725 33.7241 8.45176 34.4829 8.78433Z" fill="#C4C4C4"/>
</svg>
